<svg width="19" height="19" viewBox="0 0 19 19" fill="none" xmlns="http://www.w3.org/2000/svg">
<path d="M3.77002 1.57001C3.23959 1.57001 2.73088 1.78072 2.35581 2.15579C1.98073 2.53087 1.77002 3.03957 1.77002 3.57001V15.57C1.77002 16.67 2.67002 17.57 3.77002 17.57H15.77C16.3005 17.57 16.8092 17.3593 17.1842 16.9842C17.5593 16.6091 17.77 16.1004 17.77 15.57V3.57001C17.77 3.03957 17.5593 2.53087 17.1842 2.15579C16.8092 1.78072 16.3005 1.57001 15.77 1.57001H3.77002ZM10.32 17.57V11.37H8.23002V8.97001H10.32V7.18001C10.32 5.11001 11.58 3.98001 13.42 3.98001C14.3 3.98001 15.06 4.05001 15.29 4.08001V6.24001H14C13 6.24001 12.81 6.72001 12.81 7.42001V8.97001H15.2L14.89 11.39H12.81V17.57H10.31H10.32Z" fill="white"/>
</svg>
