<svg width="19" height="19" viewBox="0 0 19 19" fill="none" xmlns="http://www.w3.org/2000/svg">
<path d="M9.08017 1.78998C7.18027 1.78956 5.34223 2.46531 3.89505 3.69629C2.44788 4.92727 1.48604 6.63311 1.18169 8.50847C0.877353 10.3838 1.25038 12.3063 2.234 13.9318C3.21763 15.5572 4.74764 16.7796 6.55017 17.38C6.95017 17.45 7.10017 17.21 7.10017 17L7.09017 15.51C5.08017 15.88 4.56017 15.02 4.40017 14.57C4.31017 14.34 3.92017 13.63 3.58017 13.44C3.30017 13.29 2.90017 12.92 3.57017 12.91C4.20017 12.9 4.65017 13.49 4.80017 13.73C5.52017 14.94 6.67017 14.6 7.13017 14.39C7.20017 13.87 7.41017 13.52 7.64017 13.32C5.86017 13.12 4.00017 12.43 4.00017 9.36998C4.00017 8.49998 4.31017 7.77998 4.82017 7.21998C4.74017 7.01998 4.46017 6.19998 4.90017 5.09998C4.90017 5.09998 5.57017 4.88998 7.10017 5.91998C8.40836 5.55381 9.79197 5.55381 11.1002 5.91998C12.6302 4.87998 13.3002 5.09998 13.3002 5.09998C13.7402 6.19998 13.4602 7.01998 13.3802 7.21998C13.8902 7.77998 14.2002 8.48998 14.2002 9.36998C14.2002 12.44 12.3302 13.12 10.5502 13.32C10.8402 13.57 11.0902 14.05 11.0902 14.8L11.0802 17C11.0802 17.21 11.2302 17.46 11.6302 17.38C13.4221 16.768 14.9393 15.5409 15.9125 13.9166C16.8856 12.2922 17.2519 10.3756 16.9462 8.5069C16.6406 6.63817 15.6828 4.93815 14.2428 3.70852C12.8028 2.47889 10.9737 1.79917 9.08017 1.78998Z" fill="white"/>
</svg>
