<svg width="19" height="19" viewBox="0 0 19 19" fill="none" xmlns="http://www.w3.org/2000/svg">
<path d="M16.8501 8.01998H9.32007V11.02H13.6201C13.4401 12.02 12.8801 12.5 12.0201 13.06V15.07H14.6201C15.4065 14.3113 16.0248 13.3958 16.4348 12.3828C16.8448 11.3699 17.0374 10.2821 17.0001 9.18998C17.0001 8.61998 16.9501 8.52998 16.8501 8.00998V8.01998Z" fill="#4285F4"/>
<path d="M9.32017 17.02C11.4802 17.02 13.2902 16.3 14.6202 15.08L12.0202 13.08C11.4028 13.4811 10.7015 13.7349 9.97036 13.8217C9.23925 13.9084 8.49798 13.8259 7.80389 13.5803C7.10981 13.3348 6.4815 12.9329 5.96759 12.4057C5.45367 11.8785 5.06792 11.2401 4.84017 10.54H2.17017V12.61C2.83588 13.9357 3.85711 15.0502 5.11974 15.829C6.38237 16.6078 7.83668 17.0201 9.32017 17.02Z" fill="#34A853"/>
<path d="M4.84008 10.54C4.51071 9.55342 4.51071 8.48656 4.84008 7.49999V5.42999H2.17008C1.61066 6.54403 1.31934 7.77339 1.31934 9.01999C1.31934 10.2666 1.61066 11.496 2.17008 12.61L4.84008 10.54Z" fill="#FBBC05"/>
<path d="M9.32017 4.2C10.4902 4.2 11.5502 4.6 12.3802 5.4L14.6802 3.1C13.7676 2.27347 12.6766 1.66871 11.4921 1.33283C10.3076 0.996949 9.0615 0.939004 7.85092 1.16351C6.64034 1.38801 5.49791 1.88891 4.51259 2.62719C3.52728 3.36547 2.72566 4.32121 2.17017 5.42L4.84017 7.51C5.14772 6.56035 5.74544 5.73112 6.54915 5.1391C7.35285 4.54709 8.32203 4.22213 9.32017 4.21V4.2Z" fill="#EA4335"/>
</svg>
