<svg width="27" height="27" viewBox="0 0 27 27" fill="none" xmlns="http://www.w3.org/2000/svg">
<g clip-path="url(#clip0_3_2298)">
<path opacity="0.5" d="M4.53027 4.38H22.3303C22.8607 4.38 23.3694 4.59072 23.7445 4.96579C24.1196 5.34086 24.3303 5.84957 24.3303 6.38V18.18C24.9106 17.9748 25.4138 17.5961 25.7716 17.0952C26.1294 16.5944 26.3244 15.9955 26.3303 15.38V5.38C26.3303 4.58436 26.0142 3.82129 25.4516 3.25868C24.889 2.69608 24.1259 2.38 23.3303 2.38H7.33027C6.71475 2.38585 6.11593 2.58089 5.61503 2.93867C5.11414 3.29645 4.73543 3.79965 4.53027 4.38Z" fill="#0A95FF"/>
<path d="M1.33008 7.38C1.33008 6.28 2.23008 5.38 3.33008 5.38H21.3301C21.8605 5.38 22.3692 5.59072 22.7443 5.96579C23.1194 6.34086 23.3301 6.84957 23.3301 7.38V19.38C23.3301 19.9104 23.1194 20.4191 22.7443 20.7942C22.3692 21.1693 21.8605 21.38 21.3301 21.38H19.3301V26.38L14.3301 21.38H3.33008C2.79965 21.38 2.29094 21.1693 1.91586 20.7942C1.54079 20.4191 1.33008 19.9104 1.33008 19.38V7.38ZM11.9301 18.68C12.6301 18.68 13.1301 18.18 13.1301 17.48C13.1301 16.78 12.6301 16.28 11.9301 16.28C11.3301 16.28 10.7301 16.68 10.7301 17.48C10.7301 18.18 11.2301 18.58 11.9301 18.68ZM14.1301 13.28L15.1301 12.38C15.4301 11.98 15.5301 11.48 15.5301 10.98C15.5301 9.98001 15.2301 9.28 14.5301 8.78C13.9301 8.28 13.1301 8.08 12.1301 8.08C11.3301 8.08 10.7301 8.28 10.1301 8.58C9.43008 9.08 9.13008 9.98 9.13008 11.38H11.0301V11.28C11.0301 10.88 11.0301 10.58 11.2301 10.28C11.4301 9.88 11.7301 9.68001 12.2301 9.68001C12.7301 9.68001 13.0301 9.78 13.2301 10.08C13.4623 10.3221 13.592 10.6445 13.592 10.98C13.592 11.3155 13.4623 11.6379 13.2301 11.88L12.8301 12.18L11.4301 13.48C11.1301 13.88 11.0301 14.48 11.0301 15.08C11.0301 15.08 11.0301 15.28 11.2301 15.28H12.7301C12.9301 15.28 12.9301 15.18 12.9301 15.08L13.0301 14.38L13.5301 13.68L14.1301 13.28Z" fill="#0A95FF"/>
</g>
<defs>
<clipPath id="clip0_3_2298">
<rect width="26" height="26" fill="white" transform="translate(0.330078 0.380005)"/>
</clipPath>
</defs>
</svg>
