<svg width="32" height="38" viewBox="0 0 32 38" fill="none" xmlns="http://www.w3.org/2000/svg">
<g clip-path="url(#clip0_3_2182)">
<path d="M26 33.73V24.73H30V37.73H0V24.73H4V33.73H26Z" fill="#BCBBBB"/>
<path d="M21.5 0.72998L18.8 2.72998L28.7 16.03L31.4 14.03L21.5 0.72998ZM26 19.13L13.3 8.52998L15.4 6.02998L28.1 16.63L26 19.13ZM9.1 15.93L24.1 22.93L25.5 19.93L10.5 12.93L9.1 15.93ZM23.1 26.72L23.78 23.77L7.68 20.42L7 23.73L23.1 26.72ZM23 30.73H7V27.73H23V30.73Z" fill="#F48024"/>
</g>
<defs>
<clipPath id="clip0_3_2182">
<rect width="32" height="37" fill="white" transform="translate(0 0.72998)"/>
</clipPath>
</defs>
</svg>
