<svg width="27" height="27" viewBox="0 0 27 27" fill="none" xmlns="http://www.w3.org/2000/svg">
<g id="SVG" clip-path="url(#clip0_3_2313)">
<path id="Vector" d="M15.1299 3.38C14.6024 3.38752 14.0992 3.60318 13.7299 3.98L3.72992 13.98C3.36346 14.3539 3.1582 14.8565 3.1582 15.38C3.1582 15.9035 3.36346 16.4061 3.72992 16.78L11.9299 24.98C12.7299 25.78 13.9299 25.78 14.7299 24.98L24.7299 14.98C25.1299 14.58 25.3299 14.08 25.3299 13.58V5.38C25.3299 4.84957 25.1192 4.34086 24.7441 3.96579C24.3691 3.59072 23.8604 3.38 23.3299 3.38H15.1299ZM20.3299 10.38C19.7995 10.38 19.2908 10.1693 18.9157 9.79422C18.5406 9.41915 18.3299 8.91044 18.3299 8.38C18.3299 7.84957 18.5406 7.34086 18.9157 6.96579C19.2908 6.59072 19.7995 6.38 20.3299 6.38C20.8604 6.38 21.3691 6.59072 21.7441 6.96579C22.1192 7.34086 22.3299 7.84957 22.3299 8.38C22.3299 8.91044 22.1192 9.41915 21.7441 9.79422C21.3691 10.1693 20.8604 10.38 20.3299 10.38Z" fill="#0A95FF"/>
<path id="Vector_2" opacity="0.5" d="M13.3301 0.380005C12.8026 0.387519 12.2994 0.603176 11.9301 0.980005L1.93011 10.98C1.56366 11.3539 1.3584 11.8565 1.3584 12.38C1.3584 12.9035 1.56366 13.4061 1.93011 13.78C2.03011 13.58 2.23011 13.18 2.53011 12.98L12.5301 2.98C12.8994 2.60318 13.4026 2.38752 13.9301 2.38H23.5301C23.5301 1.84957 23.3194 1.34086 22.9443 0.965791C22.5693 0.590719 22.0605 0.380005 21.5301 0.380005L13.3301 0.380005Z" fill="#0A95FF"/>
</g>
<defs>
<clipPath id="clip0_3_2313">
<rect width="26" height="26" fill="white" transform="translate(0.330078 0.380005)"/>
</clipPath>
</defs>
</svg>
