<svg width="27" height="27" viewBox="0 0 27 27" fill="none" xmlns="http://www.w3.org/2000/svg">
<g clip-path="url(#clip0_3_2305)">
<path d="M12.3299 1.08002C12.5176 0.867204 12.7484 0.696763 13.007 0.580017C13.2656 0.463271 13.5461 0.402893 13.8299 0.402893C14.1137 0.402893 14.3942 0.463271 14.6528 0.580017C14.9114 0.696763 15.1422 0.867204 15.3299 1.08002L23.8299 10.68C23.9669 10.8198 24.0599 10.9967 24.0974 11.1888C24.1348 11.381 24.1151 11.5799 24.0405 11.7609C23.966 11.9419 23.84 12.097 23.6781 12.2071C23.5162 12.3171 23.3256 12.3773 23.1299 12.38H4.5299C4.33417 12.3773 4.14356 12.3171 3.98168 12.2071C3.81981 12.097 3.6938 11.9419 3.61927 11.7609C3.54474 11.5799 3.52497 11.381 3.56241 11.1888C3.59985 10.9967 3.69286 10.8198 3.8299 10.68L12.3299 1.08002Z" fill="#0A95FF"/>
<path opacity="0.5" d="M20.9299 16.38H6.7299L13.8299 24.38L20.8299 16.38H20.9299ZM15.3299 25.68C15.1422 25.8928 14.9114 26.0633 14.6528 26.18C14.3942 26.2968 14.1137 26.3571 13.8299 26.3571C13.5461 26.3571 13.2656 26.2968 13.007 26.18C12.7484 26.0633 12.5176 25.8928 12.3299 25.68L3.8299 16.08C3.69286 15.9402 3.59985 15.7633 3.56241 15.5712C3.52497 15.3791 3.54474 15.1802 3.61927 14.9992C3.6938 14.8182 3.81981 14.663 3.98168 14.5529C4.14356 14.4429 4.33417 14.3828 4.5299 14.38H23.1299C23.3256 14.3828 23.5162 14.4429 23.6781 14.5529C23.84 14.663 23.966 14.8182 24.0405 14.9992C24.1151 15.1802 24.1348 15.3791 24.0974 15.5712C24.0599 15.7633 23.9669 15.9402 23.8299 16.08L15.3299 25.68Z" fill="#0A95FF"/>
</g>
<defs>
<clipPath id="clip0_3_2305">
<rect width="26" height="26" fill="white" transform="translate(0.330078 0.380005)"/>
</clipPath>
</defs>
</svg>
