<svg xmlns="http://www.w3.org/2000/svg" width="18" height="18" viewBox="0 0 18 18" fill="none">
  <path opacity="0.4" d="M14.9999 0.64838C14.93 0.551539 14.8278 0.482923 14.7116 0.454948C14.5955 0.426974 14.4732 0.44149 14.3669 0.495869C14.2605 0.550248 14.1772 0.640898 14.1319 0.751414C14.0866 0.861929 14.0824 0.985009 14.1199 1.09838L16.0799 4.99838C16.1396 5.11773 16.2443 5.20848 16.3708 5.25068C16.4974 5.29287 16.6356 5.28305 16.7549 5.22338C16.8743 5.16371 16.965 5.05907 17.0072 4.93248C17.0494 4.80589 17.0396 4.66773 16.9799 4.54838L14.9999 0.64838ZM13.8299 2.81838C13.8024 2.75863 13.7633 2.70489 13.7149 2.66024C13.6666 2.6156 13.6099 2.5809 13.5482 2.55815C13.4864 2.5354 13.4208 2.52504 13.355 2.52765C13.2893 2.53026 13.2247 2.5458 13.1649 2.57338C13.1052 2.60096 13.0515 2.64003 13.0068 2.68838C12.9622 2.73672 12.9275 2.79339 12.9047 2.85514C12.882 2.91689 12.8716 2.98252 12.8742 3.04827C12.8768 3.11403 12.8924 3.17863 12.9199 3.23838L13.7599 5.10838C13.7841 5.17222 13.8211 5.23044 13.8686 5.27946C13.9161 5.32847 13.9731 5.36724 14.0361 5.39338C14.0992 5.41951 14.1669 5.43246 14.2352 5.43142C14.3034 5.43039 14.3708 5.41539 14.433 5.38735C14.4952 5.35931 14.5511 5.31883 14.597 5.26839C14.643 5.21796 14.6782 5.15864 14.7004 5.09409C14.7226 5.02955 14.7314 4.96114 14.7261 4.89308C14.7209 4.82503 14.7018 4.75877 14.6699 4.69838L13.8299 2.81838ZM3.22994 12.5584C3.32076 12.464 3.44496 12.4091 3.57585 12.4054C3.70674 12.4016 3.83388 12.4494 3.92994 12.5384L5.62994 14.1384C5.72541 14.2312 5.78011 14.3582 5.78198 14.4913C5.78386 14.6245 5.73276 14.7529 5.63994 14.8484C5.54711 14.9439 5.42016 14.9986 5.28701 15.0004C5.15386 15.0023 5.02541 14.9512 4.92994 14.8584L3.24994 13.2584C3.1556 13.1676 3.10067 13.0434 3.09693 12.9125C3.09319 12.7816 3.14094 12.6544 3.22994 12.5584ZM1.83994 13.5384C1.7931 13.4883 1.73647 13.4484 1.67357 13.4212C1.61066 13.394 1.54283 13.3799 1.47428 13.38C1.40573 13.3801 1.33793 13.3943 1.27509 13.4217C1.21225 13.449 1.15572 13.4891 1.10899 13.5392C1.06227 13.5894 1.02636 13.6486 1.00349 13.7132C0.980626 13.7778 0.971292 13.8465 0.976069 13.9149C0.980847 13.9832 0.999634 14.0499 1.03126 14.1107C1.06289 14.1715 1.10669 14.2252 1.15994 14.2684L4.18994 17.1084C4.28833 17.1882 4.41333 17.2276 4.5397 17.2188C4.66607 17.21 4.78437 17.1535 4.87071 17.0608C4.95706 16.9681 5.005 16.8461 5.00485 16.7194C5.00471 16.5928 4.95649 16.4709 4.86994 16.3784L1.83994 13.5384Z" fill="#3B4045"/>
</svg>