<svg xmlns="http://www.w3.org/2000/svg" width="17" height="17" viewBox="0 0 17 17" fill="none">
  <path d="M9.69982 16.22C7.39982 16.22 5.79982 14.17 4.62982 12.68L4.13982 12.08C3.46982 11.28 2.54982 10.45 1.73982 9.72005C1.13696 9.23634 0.587208 8.68994 0.0998235 8.09005C-0.0601765 7.81005 -0.0501766 7.29005 0.279823 7.13005C0.719823 6.90005 1.22982 7.08005 1.59982 7.37005L5.09982 10.12C5.19982 10.2 5.29982 10.06 5.22982 9.97005C4.65982 9.17005 1.80982 5.20005 1.51982 4.82005C1.02982 4.19005 1.34982 3.37005 2.19982 3.37005C2.63982 3.37005 2.95982 3.65005 3.15982 3.88005L6.75982 8.30005C6.83982 8.39005 6.98982 8.30005 6.92982 8.20005L3.40982 2.18005C2.76982 1.08005 4.53982 0.180045 5.17982 1.28005L8.97982 7.41005C9.04982 7.51005 9.19982 7.44005 9.15982 7.32005C8.50895 5.45365 7.82216 3.59997 7.09982 1.76005C6.78982 1.08005 6.89982 0.620046 7.45982 0.340046C7.97982 0.0700456 8.59982 0.270046 8.92982 0.820046L12.6198 9.12005C12.6398 9.16005 12.6698 9.17005 12.7198 9.18005C12.7402 9.17894 12.7597 9.17164 12.7758 9.15913C12.7919 9.14662 12.8037 9.12949 12.8098 9.11005L13.4698 6.83005C13.6698 6.17005 14.4198 5.83005 15.0698 6.02005C15.7698 6.20005 16.1598 6.88005 15.9598 7.52005C15.6298 8.79005 15.2598 10.04 14.8698 11.29C14.2898 13.15 13.8398 14.62 11.7598 15.69C11.0598 16.04 10.3798 16.22 9.70982 16.22H9.69982Z" fill="#3B4045"/>
</svg>
